<?xml version="1.0" encoding="UTF-8" standalone="no"?>
<!-- Created with Inkscape (http://www.inkscape.org/) -->

<svg
   width="124.93726mm"
   height="124.93726mm"
   viewBox="0 0 124.93726 124.93726"
   version="1.1"
   id="svg1"
   xml:space="preserve"
   xmlns="http://www.w3.org/2000/svg"
   xmlns:svg="http://www.w3.org/2000/svg"><defs
     id="defs1" /><g
     id="layer1"
     transform="translate(-33.49301,-79.82805)"><g
       id="g2"
       transform="translate(-17.470588,-110.14066)"><path
         style="fill:#00703c;fill-opacity:1"
         d="m 50.963598,252.43734 v -62.46863 h 62.468632 62.46863 v 62.46863 62.46863 H 113.43223 50.963598 Z"
         id="path2" /><path
         fill="#00703c"
         d="m 141.69729,252.03231 v 0.20468 c 0,12.28944 9.11227,22.52531 22.09493,22.52531 v 15.89431 c -12.04291,0 -22.32737,-4.98255 -29.29407,-12.9143 l 4.96071,11.66008 h -17.88152 l -5.84556,-15.17251 H 85.068826 l -5.846368,15.17251 H 61.757846 L 68.249273,274.155 c 16.985865,-7.59728 36.047317,-14.01708 56.653367,-18.96453 v 0 c -0.044,-0.74179 -0.0647,-1.4801 -0.0647,-2.23068 v -0.20895 c -2.1e-4,-20.84175 16.33754,-37.91026 38.95427,-37.91026 v 14.87212 c -12.98367,0 -22.09492,10.0312 -22.09492,22.31961 z m -19.28164,-2.68391 c -4.8297,0.65241 -10.01366,1.40847 -15.39372,2.27354 l -6.62224,-17.18627 -7.56748,19.64344 c -5.854326,1.08728 -11.7666,2.27558 -17.562563,3.56549 l 17.90479,-42.07121 h 14.869873 z"
         id="path1"
         style="fill:#ffffff;fill-opacity:1;stroke-width:0.204068" /></g></g></svg>
